<?xml version="1.0" encoding="UTF-8"?>
<svg id="_Ñëîé_1" data-name="Ñëîé_1" xmlns="http://www.w3.org/2000/svg" viewBox="0 0 2000 2000">
  <defs>
    <style>
      .cls-1 {
        fill: #fff;
      }

      .cls-2 {
        fill: #6ebb40;
      }
    </style>
  </defs>
  <rect class="cls-1" width="2000" height="2000"/>
  <g>
    <path class="cls-2" d="M1575.14,1015.7c0,329.48-268.02,597.54-597.51,597.59-329.72.05-597.68-267.88-597.67-597.6,0-329.51,268.08-597.58,597.59-597.58,154.77,0,295.98,59.15,402.23,156.02,16.41,14.96,31.98,30.81,46.63,47.49,6.52,7.42,12.87,14.99,19.02,22.72,1.7,2.14,1.29,5.26-.89,6.91l-97.13,73.45c-2.11,1.6-5.11,1.22-6.76-.86-1.53-1.94-3.75-4.67-6.83-8.3-14.76-17.5-30.78-33.9-47.93-49.05-81.56-72.09-188.46-116.13-305.45-116.85-258.78-1.59-468.49,206.39-468.98,465.18-.48,257.41,208.78,466.97,466.08,466.97s462.06-195.98,465.89-449.55c.05-3.61,1.68-7.02,4.49-9.29,19.44-15.7,96.99-78.5,116.13-93.99,1.89-1.53,4.74-.42,5.09,1.98,3.95,27.7,6,56.01,6,84.78Z"/>
    <path class="cls-2" d="M1812.65,684.69c-95.64,41.45-192.83,102.18-284.68,169.78-39.17,28.82-77.37,58.89-114.06,89.26-215.76,178.55-379.37,367.06-381.91,370.02-14.7,17.04-36.03,26.71-58.3,26.71-2.43,0-4.87-.12-7.32-.35-24.85-2.37-47.01-16.66-59.43-38.31-78.61-137.01-191.22-257.96-192.34-259.17-29.05-31.03-27.44-79.73,3.6-108.78,31.04-29.03,79.75-27.43,108.78,3.61,4.08,4.36,82.07,88.13,157.84,199.31,77.57-82.6,213.15-219.05,373.49-346.45,34.17-27.16,69.47-53.9,105.57-79.62,92.38-65.83,190.02-124.98,287.54-167.24,39-16.92,84.31,1,101.22,40.01,16.9,38.99-1,84.31-40,101.22Z"/>
  </g>
</svg>