<?xml version="1.0" encoding="UTF-8"?>
<svg id="Layer_1" xmlns="http://www.w3.org/2000/svg" viewBox="0 0 857.38 857.38">
  <defs>
    <style>
      .cls-1 {
        fill: #aeb6ba;
      }

      .cls-2 {
        fill: #dfe5e8;
      }
    </style>
  </defs>
  <g id="Objects">
    <g>
      <circle class="cls-2" cx="428.69" cy="428.69" r="414.5"/>
      <path class="cls-1" d="M689.09,728.25v22.94c-71.16,57.54-161.75,92-260.4,92s-189.24-34.46-260.39-91.98v-22.95c0-123.91,100.45-224.37,224.36-224.37h72.07c123.91,0,224.36,100.46,224.36,224.37h0Z"/>
      <circle class="cls-1" cx="428.69" cy="305.56" r="137.68" transform="translate(-90.5 392.63) rotate(-45)"/>
      <path class="cls-1" d="M428.69,857.38c-57.87,0-114.01-11.34-166.87-33.69-51.05-21.59-96.89-52.5-136.26-91.87s-70.27-85.21-91.87-136.26C11.33,542.7,0,486.56,0,428.69s11.34-114.01,33.69-166.87c21.59-51.05,52.5-96.9,91.87-136.26,39.37-39.37,85.21-70.27,136.26-91.87C314.68,11.33,370.82,0,428.69,0s114.01,11.34,166.87,33.69c51.05,21.59,96.89,52.5,136.26,91.87s70.27,85.21,91.87,136.26c22.36,52.86,33.69,109,33.69,166.87s-11.34,114.01-33.69,166.87c-21.59,51.05-52.5,96.89-91.87,136.26s-85.21,70.27-136.26,91.87c-52.86,22.36-109,33.69-166.87,33.69ZM428.69,28.38c-54.05,0-106.47,10.58-155.81,31.45-47.67,20.16-90.48,49.03-127.25,85.79-36.77,36.77-65.63,79.58-85.79,127.25-20.87,49.34-31.45,101.77-31.45,155.81s10.58,106.47,31.45,155.81c20.16,47.67,49.03,90.48,85.79,127.25,36.77,36.77,79.58,65.63,127.25,85.79,49.34,20.87,101.77,31.45,155.81,31.45s106.47-10.58,155.81-31.45c47.67-20.16,90.48-49.03,127.25-85.79,36.77-36.77,65.63-79.58,85.79-127.25,20.87-49.34,31.45-101.77,31.45-155.81s-10.58-106.47-31.45-155.81c-20.16-47.67-49.03-90.48-85.79-127.25-36.77-36.77-79.58-65.63-127.25-85.79-49.34-20.87-101.77-31.45-155.81-31.45h0Z"/>
    </g>
  </g>
</svg>